<?xml version="1.0" standalone="no"?>
<!DOCTYPE svg PUBLIC "-//W3C//DTD SVG 20010904//EN"
 "http://www.w3.org/TR/2001/REC-SVG-20010904/DTD/svg10.dtd">
<svg version="1.0" xmlns="http://www.w3.org/2000/svg"
 width="500.000000pt" height="500.000000pt" viewBox="0 0 500.000000 500.000000"
 preserveAspectRatio="xMidYMid meet">
<metadata>
Created by potrace 1.10, written by Peter Selinger 2001-2011
</metadata>
<g transform="translate(0.000000,500.000000) scale(0.100000,-0.100000)"
fill="#0091ff" stroke="none">
<path d="M1870 3971 c-236 -53 -450 -167 -625 -333 -47 -44 -82 -85 -78 -91 3
-5 2 -7 -4 -4 -6 4 -24 -11 -42 -33 -34 -43 -41 -60 -14 -39 14 12 16 12 9 -1
-4 -8 2 -4 14 10 12 14 45 51 72 83 28 32 53 55 56 52 3 -3 -8 -20 -25 -38
-29 -31 -117 -147 -119 -157 -4 -22 -18 -39 -28 -33 -6 3 -8 3 -4 -2 4 -4 0
-21 -9 -38 -14 -28 -17 -29 -28 -14 -6 9 -16 13 -20 9 -5 -4 -5 -1 -1 6 4 7
11 10 16 7 7 -4 70 83 70 97 0 4 -6 5 -12 4 -20 -3 -38 -16 -38 -27 0 -6 5 -7
12 -3 7 4 8 3 4 -5 -4 -6 -11 -9 -16 -6 -8 5 -60 -72 -60 -88 0 -3 9 -4 20 -2
25 5 35 -11 20 -30 -7 -8 -9 -15 -4 -15 5 0 2 -5 -6 -10 -11 -7 -18 -5 -26 5
-10 14 -12 14 -18 -1 -3 -9 -3 -21 1 -26 3 -7 1 -8 -5 -4 -6 4 -11 -1 -11 -11
0 -10 -2 -36 -5 -58 -3 -21 -1 -33 3 -27 5 9 11 4 19 -14 10 -20 9 -36 -2 -75
-8 -27 -12 -49 -9 -49 3 0 0 -6 -6 -13 -6 -8 -8 -17 -4 -20 3 -4 12 -35 19
-70 9 -47 12 -53 13 -27 0 19 -6 52 -13 73 -8 20 -10 39 -6 42 11 7 38 -107
55 -230 5 -35 9 -44 14 -31 9 23 -5 134 -20 160 -13 23 -41 127 -35 133 2 2
11 -16 19 -41 8 -24 13 -47 9 -50 -3 -3 0 -6 6 -6 18 0 15 21 -12 76 -13 27
-22 51 -21 53 9 8 24 -12 30 -40 5 -23 10 -28 16 -18 4 7 4 16 0 19 -13 8 -23
50 -12 50 5 0 12 -8 15 -17 4 -15 5 -15 4 2 0 11 1 23 2 28 1 4 3 10 5 15 1 4
4 14 7 22 21 52 27 84 19 98 -8 17 9 62 25 65 5 1 8 6 6 11 -5 15 9 46 19 41
5 -4 9 -1 9 4 0 20 3 26 19 39 9 8 10 11 4 7 -7 -3 -13 -3 -13 0 0 15 42 85
58 97 10 7 22 22 26 33 6 16 1 14 -23 -9 -45 -43 -38 -20 14 46 25 32 45 64
45 73 0 8 5 15 11 15 5 0 7 -5 3 -12 -4 -7 -3 -8 5 -4 6 4 9 11 6 16 -7 12
120 120 143 120 6 0 12 5 12 11 0 6 7 9 15 5 8 -3 14 0 12 7 -1 7 4 11 11 9 6
-1 12 3 12 10 0 6 3 9 6 5 4 -3 13 0 21 8 17 17 33 19 33 5 0 -5 -3 -9 -7 -8
-5 1 -24 -12 -43 -30 -19 -18 -70 -65 -112 -104 -43 -39 -76 -74 -73 -76 3 -3
-5 -13 -17 -23 -11 -11 -18 -19 -15 -19 3 0 -5 -12 -18 -26 -13 -14 -24 -29
-23 -33 1 -3 -19 -51 -46 -105 -73 -150 -107 -297 -108 -462 0 -72 3 -151 6
-175 4 -27 3 -36 -2 -25 -7 16 -9 17 -14 4 -4 -9 -2 -20 3 -25 16 -16 19 -53
5 -53 -17 0 -27 59 -14 84 5 10 7 50 4 90 -6 84 -3 73 -22 80 -9 3 -12 2 -9
-4 7 -12 19 -103 17 -135 0 -11 -4 -35 -8 -53 -4 -22 -1 -40 10 -57 9 -13 16
-31 16 -39 0 -8 5 -18 11 -22 9 -5 10 1 5 22 -5 24 -4 26 5 11 6 -10 8 -30 5
-44 -4 -13 -3 -22 2 -20 12 8 13 -35 1 -50 -6 -7 -12 -39 -13 -72 -2 -33 -9
-68 -17 -77 -11 -13 -11 -18 -1 -21 6 -3 12 -11 12 -19 0 -8 8 -14 18 -14 12
0 14 2 4 8 -8 5 -10 16 -6 27 5 13 4 16 -4 11 -7 -4 -12 -2 -12 4 0 7 6 10 14
7 8 -3 17 -1 19 6 3 7 4 -1 4 -17 -1 -18 4 -30 13 -33 11 -3 11 -2 3 4 -14 10
-6 53 9 53 5 0 6 -9 3 -20 -4 -12 -2 -20 5 -20 7 0 10 -7 6 -15 -3 -8 0 -15 6
-15 9 0 9 -3 0 -12 -16 -16 -15 -33 1 -19 11 8 17 5 27 -17 8 -15 14 -30 14
-34 1 -3 14 -18 29 -32 29 -27 32 -46 7 -54 -9 -3 -10 0 -4 9 6 11 3 10 -11
-1 -17 -14 -18 -13 -12 2 4 13 1 16 -14 13 -21 -4 -27 19 -8 31 8 4 7 9 -2 15
-12 8 -11 11 1 20 12 9 12 10 -4 5 -14 -5 -17 -2 -12 10 6 15 4 15 -10 3 -10
-8 -12 -15 -5 -17 6 -2 11 -8 11 -13 0 -6 -3 -8 -8 -5 -4 2 -15 -2 -25 -9 -11
-8 -14 -16 -8 -19 5 -4 14 1 19 10 8 15 10 15 16 -1 3 -9 1 -24 -4 -33 -9 -14
-10 -13 -5 6 10 37 -4 25 -21 -19 -12 -29 -19 -37 -25 -27 -12 18 -11 31 1 23
6 -3 7 1 3 10 -4 12 -8 13 -13 5 -5 -9 -10 -6 -14 8 -8 24 9 62 27 61 9 0 9
-2 0 -6 -7 -2 -13 -9 -13 -14 0 -12 27 0 33 15 9 23 -40 17 -51 -7 -7 -14 -11
-17 -11 -7 -1 13 -2 13 -11 0 -9 -13 -10 -13 -10 0 0 8 5 22 10 30 9 13 10 13
10 0 0 -13 1 -13 10 0 14 22 12 29 -7 26 -9 -2 -20 -11 -24 -22 -4 -10 -8 -14
-8 -7 -2 21 11 43 25 43 8 0 14 5 14 11 0 5 -5 7 -12 3 -8 -5 -9 -2 -5 9 4 10
1 17 -6 18 -7 0 -23 2 -35 5 -16 3 -22 0 -19 -8 2 -7 14 -12 25 -12 12 1 22
-3 22 -7 0 -5 -8 -9 -17 -10 -11 0 -13 -3 -5 -6 6 -2 12 -9 12 -14 0 -6 -4 -8
-9 -5 -5 4 -7 -4 -4 -16 4 -22 3 -22 -11 2 -20 32 -20 22 0 -25 8 -20 13 -40
10 -43 -3 -3 -11 9 -17 27 -9 25 -14 30 -21 19 -10 -13 -5 17 8 59 5 15 4 15
-5 3 -9 -13 -11 -13 -10 0 0 20 27 79 28 61 1 -7 7 -11 15 -8 8 3 17 1 19 -6
2 -7 4 7 4 31 0 23 -2 42 -6 43 -3 0 -14 2 -23 4 -20 4 -25 -20 -6 -31 6 -4 8
-3 4 4 -3 6 -2 13 4 17 6 4 10 -5 10 -20 0 -22 -3 -24 -19 -16 -10 6 -21 7
-25 4 -3 -4 -4 9 -1 28 4 30 4 31 -5 9 -7 -18 -8 -11 -4 30 6 56 23 104 24 66
0 -15 3 -16 15 -6 17 14 21 35 5 25 -5 -3 -10 1 -10 10 0 8 6 18 14 21 17 7
29 49 21 75 -9 27 -35 24 -35 -5 0 -13 -6 -26 -13 -29 -9 -3 -16 -31 -21 -77
-3 -40 -11 -80 -16 -89 -7 -11 -8 0 -4 34 4 33 2 45 -4 37 -7 -10 -11 -5 -16
18 -8 43 -7 60 4 35 6 -15 9 -6 9 33 1 30 5 51 10 47 5 -3 8 -29 7 -58 -2 -28
-1 -36 1 -17 2 19 11 42 19 51 13 15 13 17 -1 22 -15 7 -20 33 -9 61 9 25 22
19 17 -7 -3 -17 0 -24 12 -24 10 0 14 6 10 16 -4 9 -12 45 -18 81 -5 36 -16
69 -24 73 -7 4 -13 20 -14 35 0 15 -3 35 -7 44 -4 9 -7 -38 -8 -105 -1 -93 1
-106 5 -52 l6 70 9 -63 c5 -43 5 -67 -3 -76 -7 -8 -11 -18 -10 -22 1 -5 -3
-20 -9 -34 -11 -25 -11 -24 -13 10 -2 19 -2 69 -2 110 1 61 0 68 -7 35 l-7
-40 -3 35 c-2 26 -4 29 -7 12 -3 -13 -2 -31 2 -40 3 -9 8 -68 11 -132 5 -127
10 -154 26 -144 7 5 9 -2 4 -20 -4 -16 -2 -33 3 -40 7 -8 7 -24 0 -49 -12 -44
-53 -133 -44 -97 3 14 8 39 10 55 4 28 4 28 -4 5 l-9 -25 -2 25 c-2 24 -2 24
-11 -5 -4 -16 -6 -41 -4 -55 5 -21 4 -22 -3 -5 -7 16 -10 17 -14 5 -3 -8 -4
-6 -2 4 2 10 0 33 -3 50 -6 26 -7 28 -14 11 -5 -12 -5 -1 -2 24 4 32 3 42 -6
37 -8 -5 -9 3 -5 28 3 20 1 36 -4 36 -16 0 -20 69 -4 75 10 4 13 -3 9 -30 -3
-19 -1 -35 4 -35 4 0 10 17 12 38 2 20 3 3 2 -38 -2 -51 -1 -64 4 -40 l8 35 5
-30 c2 -16 3 4 2 45 l-3 75 10 -69 c5 -38 14 -83 19 -100 9 -29 10 -28 5 9
-13 96 -18 188 -9 182 5 -3 7 21 4 56 l-4 62 -7 -55 c-5 -35 -6 -16 -3 51 4
111 14 179 39 267 15 52 14 72 -6 72 -6 0 -7 -5 -4 -10 4 -6 -1 -43 -10 -83
-9 -39 -20 -101 -25 -137 l-9 -65 4 65 c2 36 7 81 9 100 4 26 4 29 -2 10 -8
-25 -8 -25 -15 6 -18 91 -18 91 -2 54 16 -37 16 -39 0 48 -4 21 -4 23 3 7 7
-16 10 -17 14 -5 3 8 3 2 1 -15 -2 -24 -1 -26 6 -10 8 20 8 20 13 0 3 -11 4 6
2 38 -2 36 0 56 6 52 6 -4 7 1 3 11 -4 11 -3 15 5 10 6 -3 14 -1 18 5 5 8 3 9
-6 4 -9 -6 -12 -4 -8 6 3 8 9 22 13 32 5 10 3 17 -5 17 -10 0 -10 3 0 15 7 9
10 18 7 21 -3 4 3 24 14 46 15 29 23 37 32 29 9 -7 13 -5 14 8 3 40 -30 14
-62 -48 -151 -301 -178 -699 -69 -1020 115 -340 356 -620 669 -775 222 -111
365 -141 634 -133 131 4 197 10 256 25 579 148 1015 716 1015 1322 0 608 -415
1138 -1010 1291 -124 32 -456 37 -580 10z m430 -2 c175 -21 360 -85 509 -175
99 -61 139 -92 239 -189 251 -241 394 -577 395 -930 0 -144 -14 -236 -59 -373
-54 -165 -110 -253 -199 -311 -22 -14 -43 -30 -46 -34 -3 -5 -10 -8 -15 -8 -5
0 -39 -9 -76 -21 -53 -17 -65 -24 -56 -35 6 -7 21 -13 34 -13 32 0 21 -25 -12
-26 -14 -1 -23 0 -20 3 3 3 -4 14 -14 26 -11 11 -23 17 -27 13 -4 -4 1 -12 11
-18 15 -8 16 -12 5 -19 -21 -13 -36 -11 -53 7 -9 8 -16 12 -16 7 0 -4 -4 -2
-9 6 -7 10 -15 11 -37 3 -19 -7 -23 -11 -11 -11 10 -1 16 -5 12 -10 -3 -5 4
-12 15 -16 11 -3 20 -10 20 -15 0 -6 11 -5 26 0 34 13 53 13 34 -1 -12 -8 -10
-9 9 -4 16 5 21 4 17 -4 -5 -7 -1 -9 8 -5 9 3 13 10 10 15 -3 5 -3 9 0 9 14 0
14 -20 0 -35 -13 -12 -19 -13 -30 -4 -8 7 -17 9 -21 6 -3 -4 -13 -1 -21 6 -13
10 -15 9 -9 -5 9 -25 -5 -22 -31 5 -22 23 -39 38 -59 50 -14 8 -50 -9 -193
-89 -164 -92 -370 -154 -512 -154 -29 0 -45 -6 -59 -22 -10 -13 -18 -18 -19
-11 0 6 6 14 13 16 19 8 -12 27 -45 27 -53 0 -139 41 -188 89 -36 35 -52 61
-69 112 -34 104 -72 141 -225 215 -258 125 -320 205 -375 486 -98 502 12 910
318 1182 115 102 339 224 461 250 79 17 256 20 370 5z m-1146 -540 c-15 -24
-27 -50 -27 -56 0 -7 -4 -13 -9 -13 -4 0 -8 -7 -8 -15 0 -8 -5 -15 -11 -15 -5
0 -8 -4 -5 -8 2 -4 -8 -32 -24 -61 -17 -30 -28 -56 -26 -60 2 -3 -2 -12 -10
-18 -7 -8 -15 -9 -19 -3 -11 18 149 310 162 296 3 -2 -8 -24 -23 -47z m-130
-172 c4 4 0 -10 -9 -31 -12 -27 -13 -41 -5 -51 6 -7 7 -21 2 -34 -7 -21 -9
-20 -25 14 -16 33 -16 38 -2 66 9 16 13 35 8 42 -5 9 -3 9 9 0 8 -7 18 -10 22
-6z m56 -51 c0 -21 -35 -94 -42 -90 -6 4 -8 -2 -3 -16 5 -15 4 -20 -4 -16 -6
4 -11 2 -11 -4 0 -6 -5 -8 -11 -4 -6 3 -7 9 -3 13 5 3 11 15 13 26 5 29 21 56
30 51 4 -3 7 8 6 23 -1 21 2 28 12 24 7 -3 13 -6 13 -7z m-165 -102 c-13 -32
-24 -54 -25 -48 0 15 42 116 46 111 2 -2 -7 -30 -21 -63z m-29 -355 l5 -177
-31 -10 -30 -11 0 105 c0 103 0 105 21 94 11 -7 23 -9 26 -6 3 3 -5 10 -19 16
-20 9 -23 17 -20 46 2 19 8 34 13 34 4 0 6 -8 5 -17 -2 -10 0 -27 5 -38 9 -21
7 21 -6 100 -5 31 -4 37 5 25 9 -12 10 -7 6 25 -5 35 -4 37 5 15 6 -14 13
-104 15 -201z m117 43 c4 -21 3 -31 -3 -27 -6 3 -10 20 -10 37 0 38 5 34 13
-10z m45 -194 c-5 -10 -13 -18 -19 -18 -6 0 -8 -4 -5 -8 2 -4 1 -14 -5 -22 -7
-13 -9 -12 -9 2 0 26 11 48 21 42 5 -3 9 10 10 28 0 27 2 29 8 13 5 -11 4 -28
-1 -37z m82 -128 c-18 -33 -25 -15 -9 22 9 23 15 28 17 16 2 -9 -2 -27 -8 -38z
m30 -47 c0 -12 -5 -25 -11 -29 -9 -5 -10 2 -6 22 l6 29 -12 -27 c-6 -16 -14
-28 -19 -28 -11 0 -10 8 8 47 18 36 34 30 34 -14z m-160 -88 c-4 -11 -6 -42
-5 -70 2 -27 1 -58 -2 -69 -8 -30 -24 3 -18 39 4 25 3 27 -5 10 -8 -16 -9 -13
-5 15 5 28 4 32 -5 17 -7 -10 -9 -31 -4 -50 6 -30 5 -31 -11 -17 -17 14 -17
14 -4 -7 8 -14 16 -18 20 -11 4 6 10 2 14 -11 4 -13 4 -25 1 -28 -3 -4 -6 0
-6 8 0 12 -2 12 -9 0 -7 -11 -12 -7 -25 15 -8 16 -15 24 -16 19 0 -19 31 -56
42 -49 6 4 8 -2 3 -17 -5 -19 -4 -21 5 -9 9 12 10 10 5 -10 -4 -17 -3 -21 3
-12 7 11 11 10 17 -5 12 -30 15 -72 5 -78 -12 -7 -29 26 -22 44 3 8 0 11 -7 7
-7 -5 -9 -1 -4 10 4 11 2 15 -4 11 -6 -4 -10 -1 -10 6 1 6 -14 43 -32 80 -17
38 -30 74 -27 80 2 7 5 3 6 -8 1 -20 1 -20 11 0 7 16 8 14 4 -10 -8 -45 41 56
56 117 12 44 13 46 24 25 6 -12 8 -31 5 -42z m-83 -37 c-3 -8 -6 -5 -6 6 -1
11 2 17 5 13 3 -3 4 -12 1 -19z m142 -128 c-6 -16 -15 -27 -21 -24 -6 4 -6 -2
1 -14 14 -27 14 -35 -1 -26 -7 4 -8 3 -4 -5 4 -6 11 -9 15 -6 5 2 9 -7 9 -20
0 -33 -4 -32 -28 8 -20 33 -26 52 -12 44 4 -3 7 9 8 26 1 18 -1 26 -4 18 -3
-10 -6 -10 -12 -1 -4 7 -6 -5 -5 -26 2 -39 23 -94 35 -94 3 0 5 -19 5 -42 -2
-59 4 -73 21 -51 13 17 14 17 8 0 -4 -12 -2 -17 7 -15 9 2 13 -6 13 -24 -1
-16 3 -25 9 -21 6 3 7 1 3 -5 -3 -6 -1 -14 5 -18 8 -5 9 -3 4 6 -5 8 -3 11 6
8 16 -6 19 -40 4 -50 -6 -5 -6 -8 3 -9 33 -4 37 -6 34 -18 -1 -7 2 -10 7 -7 5
3 15 -2 22 -12 7 -9 9 -14 5 -10 -5 4 -16 2 -25 -4 -9 -7 -13 -8 -9 -4 4 5
-10 24 -32 43 -26 23 -37 40 -33 50 4 10 2 14 -5 9 -11 -7 -25 9 -28 33 -2 7
-12 24 -24 36 -12 13 -19 28 -16 34 4 5 1 13 -5 17 -8 5 -9 3 -4 -6 5 -8 4
-11 -3 -6 -6 4 -9 13 -6 21 4 8 11 12 16 9 6 -4 6 1 -1 13 -6 11 -8 23 -5 26
3 3 -4 23 -15 45 -20 39 -20 42 -4 86 l17 45 14 -32 c10 -25 15 -29 22 -17 5
8 7 26 4 40 -4 24 -4 24 5 3 7 -15 7 -33 0 -53z m91 -41 c11 27 15 30 22 17 6
-10 3 -26 -6 -43 -8 -16 -15 -23 -16 -17 0 6 -7 11 -15 11 -17 0 -20 -13 -5
-22 6 -3 10 -11 10 -17 0 -7 -4 -7 -13 1 -8 6 -18 7 -22 3 -5 -4 -5 1 -2 11 9
24 -3 53 -14 35 -5 -7 -9 -17 -9 -23 0 -5 4 -4 8 3 5 7 8 -6 7 -32 0 -25 -4
-49 -9 -53 -4 -4 -7 -1 -6 7 1 8 2 22 1 30 -1 12 -3 12 -10 2 -4 -8 -7 -27 -5
-42 2 -16 0 -31 -4 -34 -14 -8 -8 72 6 86 15 15 16 32 0 22 -7 -4 -8 -3 -4 4
4 6 2 20 -3 31 -8 13 -6 30 6 59 l16 41 26 -56 27 -57 14 33z m47 28 c-3 -8 1
-14 9 -14 7 0 11 5 7 10 -3 5 7 1 21 -8 26 -17 27 -17 41 1 11 15 16 17 26 7
11 -11 10 -15 0 -25 -12 -11 -13 -9 -7 7 7 18 5 18 -17 -3 -13 -12 -26 -20
-29 -16 -4 3 -12 -4 -18 -16 -9 -18 -9 -21 0 -15 8 5 11 3 8 -6 -2 -7 -17 -14
-31 -14 -16 -1 -26 3 -24 9 3 6 9 10 15 9 6 -2 9 4 5 13 -4 11 -13 5 -33 -27
-25 -36 -28 -38 -27 -16 1 14 5 23 9 21 10 -6 40 55 33 66 -3 6 -3 15 0 20 9
15 18 12 12 -3z m137 -49 c-4 -6 22 -18 51 -24 37 -7 234 -102 253 -122 12
-13 27 -20 32 -17 6 3 7 -1 4 -9 -8 -20 -9 -20 -34 6 -11 12 -20 17 -20 12 0
-6 5 -15 12 -22 9 -9 9 -12 0 -12 -6 0 -15 8 -21 18 -8 14 -12 15 -22 5 -7 -7
-10 -14 -6 -14 4 -1 12 -3 17 -4 6 -1 13 -3 16 -4 4 0 1 -8 -6 -16 -7 -8 -16
-13 -19 -10 -4 2 -8 -2 -8 -9 0 -7 6 -13 13 -13 7 0 11 4 9 8 -8 11 23 31 36
23 8 -5 9 -3 4 6 -6 10 -4 12 8 7 9 -3 19 -2 22 4 4 5 15 -1 26 -15 21 -26 25
-41 9 -31 -5 3 -10 2 -10 -4 0 -5 -12 -8 -27 -6 -16 1 -27 7 -26 12 1 5 -5 10
-13 10 -12 0 -12 -3 0 -16 7 -9 12 -24 11 -33 -2 -10 2 -21 7 -25 6 -3 8 -1 4
5 -3 6 -2 13 4 17 6 4 8 11 5 16 -9 13 9 11 23 -3 9 -9 12 -9 12 0 0 7 5 12
11 12 6 0 9 -7 5 -15 -3 -8 -1 -15 3 -15 5 0 14 -14 20 -31 15 -43 81 -130 93
-123 5 4 4 -4 -3 -17 -7 -15 -14 -19 -17 -11 -2 6 -9 9 -15 5 -6 -4 -8 0 -4
10 4 11 1 15 -12 12 -20 -4 -81 32 -81 47 0 6 6 5 15 -2 26 -21 16 -5 -12 21
-14 13 -23 19 -19 12 3 -6 2 -14 -3 -17 -12 -8 -39 26 -36 46 2 9 -3 22 -10
28 -7 6 -12 18 -10 28 1 9 0 11 -2 4 -3 -7 -9 -10 -14 -6 -5 3 -6 10 -3 16 5
7 2 8 -5 4 -9 -6 -8 -12 4 -26 10 -11 12 -20 6 -24 -12 -8 -53 43 -44 57 3 5
1 7 -4 4 -6 -4 -16 0 -22 7 -7 8 -8 17 -3 20 8 4 9 50 2 66 -1 3 -1 10 0 15 1
6 -2 7 -6 2 -4 -4 -16 0 -26 10 -10 9 -18 12 -18 7 0 -5 9 -15 21 -22 16 -11
18 -16 9 -28 -7 -8 -9 -14 -6 -14 4 0 4 -5 1 -11 -5 -6 -12 -4 -22 8 -12 14
-12 12 1 -9 22 -37 4 -44 -22 -8 -23 31 -27 41 -14 39 22 -4 23 4 2 26 -20 21
-21 25 -6 31 17 7 22 34 6 34 -20 0 -25 -2 -22 -11 4 -14 -14 -10 -28 6 -7 9
-15 13 -18 10 -3 -3 -12 1 -20 8 -11 8 -14 8 -9 0 4 -6 3 -14 -3 -18 -9 -6
-14 7 -11 30 1 6 -8 -1 -19 -13 -15 -19 -17 -28 -9 -44 13 -23 -3 -48 -29 -43
-9 1 -23 -2 -29 -8 -7 -5 -13 -6 -13 -2 0 4 -7 2 -15 -5 -14 -12 -17 -10 -19
17 -1 7 -5 12 -10 12 -12 -1 -26 23 -19 34 2 4 12 2 21 -5 14 -11 14 -10 -1
12 -22 31 -21 39 1 35 25 -4 43 15 37 39 -5 15 -4 17 3 8 8 -11 10 -11 15 1 3
8 18 13 40 13 19 -1 33 -4 31 -8z m-204 -69 c0 -6 -6 -7 -12 -3 -7 4 -9 3 -5
-1 15 -17 37 -13 48 7 11 20 12 20 21 4 7 -12 7 -21 0 -28 -14 -14 4 -51 20
-42 7 4 8 2 4 -5 -4 -6 -2 -19 6 -28 11 -14 11 -15 -2 -8 -20 13 -32 13 -47 2
-9 -6 -13 -6 -13 1 0 6 4 13 9 16 4 3 7 16 7 28 -1 13 2 32 6 43 9 20 9 20 -7
0 -9 -11 -24 -20 -35 -20 -10 0 -21 -3 -25 -6 -3 -4 4 -6 16 -5 12 0 24 -4 26
-10 2 -7 -8 -11 -27 -9 -17 1 -28 0 -25 -4 4 -3 8 -4 9 -1 4 8 36 -21 36 -32
0 -7 -5 -6 -13 0 -10 8 -13 6 -14 -11 0 -12 1 -16 4 -9 4 10 8 10 19 1 8 -6
12 -15 9 -19 -3 -4 3 -14 13 -21 15 -13 16 -12 3 4 -12 15 -9 21 12 18 4 0 6
4 5 11 -2 7 6 12 18 13 11 0 28 6 37 14 10 7 17 10 17 6 0 -4 6 -3 13 2 6 6
20 9 29 8 26 -5 52 29 39 52 -5 11 -6 25 -2 32 6 10 10 9 15 -4 3 -10 11 -13
18 -8 19 12 31 11 50 -5 18 -15 43 -7 32 10 -5 7 -2 8 5 3 10 -6 9 -11 -3 -23
-14 -15 -14 -18 7 -41 12 -13 17 -21 10 -17 -25 14 -23 -15 3 -49 21 -28 30
-33 40 -24 8 6 12 15 9 19 -3 5 -1 11 5 15 6 4 8 10 5 15 -3 5 -1 11 3 14 10
6 10 -40 -1 -50 -3 -4 12 -29 34 -55 23 -27 37 -49 33 -49 -4 0 1 -9 11 -20
10 -11 20 -18 22 -16 3 2 34 -18 69 -45 36 -27 70 -46 76 -43 6 4 8 3 5 -3 -4
-6 4 -15 18 -21 18 -8 26 -8 35 4 15 17 34 19 24 2 -5 -8 -2 -9 9 -5 10 3 24
4 32 1 11 -5 12 -10 2 -25 -6 -10 -18 -19 -26 -19 -11 0 -9 5 5 22 15 17 12
16 -17 -5 -40 -30 -74 -38 -39 -9 20 16 20 18 3 18 -10 1 -22 3 -28 5 -5 2
-10 0 -10 -6 0 -5 6 -8 15 -7 12 3 13 1 3 -9 -10 -10 -20 -10 -50 4 -30 14
-34 14 -19 2 11 -8 24 -15 29 -15 4 0 6 -3 4 -7 -3 -5 5 -8 16 -9 12 0 36 -4
52 -7 20 -5 23 -4 11 1 -15 6 -16 11 -7 16 7 5 18 3 24 -3 7 -7 14 -7 24 1 10
8 18 6 33 -7 20 -18 21 -18 50 10 35 33 41 23 8 -12 -20 -21 -20 -23 -4 -17
12 4 17 4 13 -2 -3 -5 3 -10 13 -10 10 0 18 4 17 9 -1 5 4 12 12 15 8 3 11 0
7 -7 -12 -19 10 -12 29 9 10 11 20 18 23 15 3 -2 13 0 23 6 22 11 25 0 7 -21
-7 -8 -1 -4 15 9 15 14 27 19 27 12 0 -7 5 -9 13 -4 6 4 21 8 32 8 40 2 110
17 148 33 15 7 39 15 53 18 13 3 27 11 30 16 4 6 10 5 15 -3 7 -11 12 -12 29
-1 27 17 50 15 50 -4 0 -14 -2 -14 -16 -3 -14 11 -18 10 -30 -6 -8 -10 -14
-22 -14 -26 0 -10 140 -53 147 -46 2 3 -11 8 -29 12 -29 7 -30 9 -13 16 16 6
17 8 3 8 -9 1 -20 6 -24 12 -5 9 1 10 22 5 21 -5 25 -4 14 4 -13 9 -13 10 0 9
8 0 24 -4 35 -9 20 -9 20 -9 0 -9 -17 -1 -17 -3 -5 -11 20 -13 33 -13 24 1 -4
8 1 9 16 4 14 -4 20 -3 16 3 -7 12 54 25 77 16 8 -3 29 2 46 10 35 18 45 20
36 6 -9 -14 7 -12 29 5 14 11 24 12 39 4 13 -8 17 -8 13 0 -6 10 51 47 66 43
4 -1 5 5 2 13 -4 8 -1 15 5 15 6 0 33 21 61 47 41 38 47 49 35 55 -9 6 -22 4
-32 -2 -16 -10 -15 -11 5 -7 12 3 22 1 22 -4 0 -5 -4 -9 -9 -9 -6 0 -22 -11
-37 -25 -14 -13 -30 -22 -35 -19 -5 3 -6 -2 -3 -10 6 -14 -5 -21 -29 -17 -4 0
-6 -4 -5 -10 2 -6 -4 -14 -12 -17 -8 -2 -12 -1 -8 3 4 5 3 14 -2 20 -12 15 15
29 32 18 7 -3 8 -1 4 5 -4 7 -3 12 2 12 4 0 18 9 31 21 18 17 20 23 10 36 -11
12 -10 14 2 13 28 -4 40 0 33 12 -5 7 -3 8 7 3 8 -5 7 0 -3 12 -20 21 -24 43
-9 43 15 0 23 -18 11 -23 -6 -3 -5 -4 2 -3 7 2 12 11 10 20 -2 9 1 15 5 14 4
-1 17 3 29 9 12 7 26 8 34 3 11 -7 8 -11 -11 -20 -25 -11 -55 -48 -46 -56 2
-3 32 23 66 56 63 61 85 73 79 43 -2 -9 -7 -15 -12 -14 -5 1 -15 -11 -22 -27
-7 -17 -21 -39 -32 -50 -12 -12 -28 -33 -37 -49 -9 -15 -14 -20 -11 -10 4 11
-9 4 -32 -19 -20 -19 -37 -42 -37 -50 0 -18 -85 -75 -99 -67 -6 4 -5 0 2 -9
11 -14 8 -21 -22 -52 -20 -19 -36 -33 -36 -29 0 8 -73 -47 -91 -70 -12 -15
-18 -17 -24 -7 -6 9 -4 11 5 5 9 -5 11 -4 6 4 -10 15 -27 4 -20 -13 5 -12 -6
-16 -49 -17 -9 0 -15 -4 -12 -9 8 -13 -90 -65 -175 -93 -110 -37 -247 -57
-386 -57 -143 0 -290 18 -259 32 14 6 9 7 -15 3 -72 -10 -293 75 -274 106 3 5
10 9 15 9 6 0 7 -5 3 -11 -4 -7 12 -1 35 11 45 26 77 65 61 75 -6 4 -10 3 -9
-2 3 -13 -12 -43 -23 -43 -5 0 -6 10 -2 23 6 20 4 19 -15 -5 -13 -16 -27 -28
-33 -28 -7 0 -1 11 12 25 13 14 19 25 14 25 -5 0 -15 -9 -22 -20 -7 -11 -17
-20 -23 -20 -6 0 -1 15 11 33 l22 32 -24 -27 c-26 -30 -49 -39 -27 -10 13 15
12 16 -2 4 -26 -20 -67 -3 -52 21 3 5 9 4 13 -3 5 -8 9 -7 13 5 4 10 3 14 -4
9 -8 -4 -9 1 -5 17 6 20 3 18 -11 -6 -9 -16 -16 -34 -14 -40 1 -5 -3 -5 -10 2
-10 10 -10 15 0 27 10 12 9 14 -6 11 -10 -1 -17 -8 -15 -15 1 -6 -2 -8 -8 -5
-6 4 -9 13 -6 20 7 20 -15 37 -31 23 -10 -8 -18 -7 -31 4 -9 8 -26 18 -36 22
-22 8 -14 19 15 21 11 1 25 -7 30 -17 13 -24 28 -14 23 15 l-5 22 12 -22 c7
-13 20 -23 30 -23 10 0 20 -8 22 -17 4 -16 5 -16 6 0 1 11 -7 21 -19 24 -11 3
-32 25 -46 49 -27 46 -38 56 -27 27 4 -14 3 -15 -6 -7 -7 6 -14 20 -15 30 -2
11 -5 17 -8 14 -9 -7 -48 31 -42 41 2 4 -5 6 -16 4 -11 -2 -20 0 -20 6 0 5 0
12 0 17 0 4 4 7 9 7 5 0 13 3 17 8 11 10 26 9 19 -2 -3 -5 -1 -12 5 -16 6 -4
9 -9 7 -13 -1 -4 19 -28 45 -53 27 -26 48 -43 48 -40 0 4 -16 22 -35 41 -19
18 -33 36 -30 38 3 3 -4 12 -15 19 -11 8 -18 19 -14 24 4 6 11 5 20 -2 9 -8
14 -8 12 -2 -2 6 2 10 7 10 6 -1 9 -7 9 -14 -1 -7 3 -11 10 -10 6 1 11 -10 11
-25 0 -15 6 -33 13 -40 7 -7 12 -8 10 -3 -2 6 2 11 7 13 6 1 10 -4 10 -10 0
-7 7 -13 15 -13 8 0 17 -11 20 -25 5 -20 7 -21 12 -9 7 17 -53 85 -64 74 -3
-4 -9 -2 -13 4 -3 6 -1 11 6 11 8 0 6 6 -4 18 -24 26 -21 39 3 17 11 -10 20
-14 20 -10 0 5 11 -2 25 -15 34 -32 32 -49 -2 -19 -16 13 -10 5 11 -18 22 -23
43 -40 47 -38 10 7 70 -45 64 -55 -3 -5 0 -12 6 -16 8 -4 9 -3 5 4 -11 18 3
14 31 -8 14 -11 31 -20 37 -20 6 0 5 4 -3 9 -9 6 -10 11 -2 15 6 4 21 0 34 -9
20 -13 24 -13 24 -1 0 8 -6 12 -14 9 -8 -3 -13 0 -11 8 2 9 -4 13 -15 11 -10
-2 -16 2 -15 10 2 6 -2 12 -9 13 -6 0 -15 3 -19 8 -4 4 -12 7 -18 7 -6 0 2
-11 18 -23 20 -16 25 -26 18 -31 -18 -11 -91 52 -87 74 2 10 -6 27 -17 37 -12
10 -18 13 -15 6 11 -17 -9 -25 -22 -9 -9 10 -8 15 3 19 24 9 5 59 -24 63 -6 1
-12 3 -15 4 -3 1 -15 3 -27 4 -15 1 -23 7 -22 19 1 9 -2 15 -6 12 -10 -6 -31
20 -28 35 2 7 -5 14 -15 15 -14 3 -16 1 -7 -10 7 -8 8 -20 4 -27 -4 -7 -4 -10
1 -6 9 9 35 -9 35 -24 0 -6 -8 -4 -17 3 -16 13 -17 12 -4 -4 8 -9 11 -20 8
-24 -3 -3 -16 11 -28 31 -13 23 -27 35 -35 32 -8 -3 -18 3 -23 13 -14 25 -1
35 16 13 13 -15 13 -15 3 6 -9 19 -14 21 -26 11 -11 -9 -14 -8 -14 2 0 11 -2
11 -9 0 -12 -18 -41 -23 -41 -8 0 7 -5 4 -11 -7 -8 -13 -13 -15 -19 -6 -5 9
-9 9 -14 1 -4 -6 -2 -11 4 -11 6 0 8 -5 5 -10 -4 -6 -12 -7 -18 -3 -8 5 -8 2
1 -9 10 -12 10 -18 -2 -27 -10 -9 -16 -9 -21 -1 -5 8 -12 7 -24 -4 -10 -9 -21
-13 -26 -9 -4 5 -5 2 -1 -5 4 -7 11 -10 16 -7 4 3 13 -2 20 -10 10 -12 16 -13
26 -4 13 11 18 5 15 -14 -1 -5 3 -6 9 -2 5 3 10 1 10 -4 0 -6 0 -14 0 -18 0
-5 -6 -8 -12 -8 -7 0 -13 -7 -13 -15 -1 -8 -7 -14 -14 -12 -7 1 -10 -2 -6 -8
3 -6 10 -8 15 -5 4 3 13 -2 20 -10 7 -8 16 -13 20 -10 8 5 24 -24 22 -37 -1
-5 2 -7 6 -5 5 1 25 -13 46 -30 33 -30 36 -38 13 -34 -5 1 -6 -3 -2 -9 5 -8
11 -7 21 1 15 12 29 6 29 -14 0 -6 14 -12 32 -13 20 -1 30 3 26 9 -3 6 -1 7 6
3 9 -6 9 -11 0 -22 -8 -10 -8 -14 0 -14 6 0 13 1 14 3 2 1 12 -4 21 -12 11
-10 14 -17 7 -24 -7 -7 -18 -4 -33 9 -19 16 -21 16 -9 1 19 -24 52 -42 49 -26
-2 6 2 13 9 16 8 3 11 -3 8 -16 -3 -15 1 -19 13 -14 13 4 14 3 4 -5 -11 -7
-10 -10 3 -16 10 -3 24 -1 32 5 7 7 16 9 20 6 3 -4 -2 -9 -11 -13 -9 -3 -13
-11 -9 -16 10 -17 -96 45 -122 70 -13 13 -32 25 -42 27 -10 1 -17 8 -15 14 2
10 -11 15 -30 12 -4 0 -16 11 -27 25 -11 14 -23 25 -28 26 -4 0 -14 9 -21 20
-7 10 -17 16 -22 13 -4 -3 -13 2 -19 9 -9 11 -9 16 0 22 8 5 9 3 4 -6 -5 -9
-4 -11 4 -6 6 4 9 12 5 17 -3 5 -9 7 -14 4 -4 -3 -21 8 -36 24 -15 17 -31 28
-36 25 -4 -3 -5 2 -2 10 3 9 11 14 17 13 7 -1 12 6 12 16 0 9 -3 16 -6 15 -4
-2 -16 5 -26 15 -11 9 -22 14 -26 11 -4 -4 -4 3 -2 16 4 23 -19 67 -33 62 -4
-1 -7 6 -8 16 -1 10 -10 31 -20 47 -10 16 -14 26 -8 22 12 -7 36 14 33 29 -1
5 -1 15 0 22 1 15 21 6 21 -9z m30 -75 c0 -8 -19 -13 -24 -6 -3 5 1 9 9 9 8 0
15 -2 15 -3z m20 -28 c0 -2 -6 -9 -14 -15 -11 -9 -16 -9 -22 0 -4 7 -3 9 4 5
6 -3 13 -2 17 4 6 10 15 14 15 6z m153 -21 c-6 -18 -15 -19 -33 -2 -7 6 -4 -1
8 -17 24 -32 20 -54 -6 -34 -15 11 -15 11 -5 -3 20 -25 3 -31 -17 -6 -12 15
-15 26 -9 34 7 7 6 14 -2 19 -8 5 -9 3 -4 -6 5 -8 4 -11 -2 -7 -24 15 -5 -43
22 -66 23 -21 26 -26 13 -27 -27 0 -33 4 -31 18 0 7 -2 11 -5 8 -3 -3 -13 1
-23 10 -12 11 -19 12 -24 4 -5 -8 -11 -8 -21 1 -7 6 -11 15 -8 21 3 5 11 5 18
-1 10 -8 18 -5 31 9 10 11 14 20 10 20 -4 0 0 9 9 19 10 11 26 18 37 16 10 -2
21 1 24 6 9 14 25 0 18 -16z m37 -19 c1 5 9 -2 20 -15 23 -27 18 -41 -12 -36
-12 3 -27 0 -35 -6 -7 -7 -13 -8 -13 -4 0 4 -8 1 -17 -6 -10 -7 -8 -2 5 12 12
14 19 28 16 32 -4 3 -4 14 0 23 5 13 9 14 21 4 8 -7 15 -9 15 -4z m1660 4 c0
-5 -7 -10 -16 -10 -8 0 -12 5 -9 10 3 6 10 10 16 10 5 0 9 -4 9 -10z m-145
-31 c4 -6 17 -14 29 -19 21 -9 21 -9 0 -9 -11 -1 -29 8 -39 19 -10 11 -13 20
-7 20 6 0 14 -5 17 -11z m-1414 -31 c11 -21 11 -22 -4 -9 -10 7 -17 17 -17 22
0 15 9 10 21 -13z m1334 12 c-3 -5 2 -10 12 -10 23 0 63 -27 63 -42 0 -7 -7
-5 -17 4 -10 8 -27 18 -38 22 -20 6 -20 6 0 -9 11 -8 25 -18 30 -22 15 -12 68
-13 83 -1 7 6 15 8 19 4 3 -3 1 -6 -6 -6 -7 0 -10 -4 -7 -9 9 -13 -13 -19 -63
-16 -29 2 -39 -1 -30 -7 10 -7 4 -8 -16 -4 -23 5 -27 4 -15 -5 12 -8 9 -9 -15
-5 -28 5 -28 5 -7 -6 17 -8 29 -8 48 1 15 6 29 9 32 7 3 -3 -12 -13 -32 -21
-29 -12 -41 -13 -52 -4 -22 18 -16 1 7 -24 12 -12 19 -16 15 -9 -4 6 -3 12 3
12 5 0 17 3 25 6 12 5 15 2 10 -12 -5 -15 -4 -16 5 -4 5 8 13 11 18 7 10 -10
-18 -28 -34 -22 -7 2 -28 -2 -47 -10 -44 -19 -61 -18 -21 0 43 20 20 18 -55
-5 -52 -16 -72 -18 -97 -9 -26 8 -39 7 -67 -6 -19 -9 -40 -13 -47 -9 -8 4 -9
3 -5 -4 4 -7 3 -12 -3 -12 -17 0 -21 17 -7 29 9 8 16 8 20 2 4 -6 13 -8 21 -5
8 4 12 11 9 16 -4 6 3 8 17 4 14 -3 11 0 -8 9 -37 17 -44 30 -12 20 16 -5 19
-4 14 5 -5 8 -4 11 3 6 6 -3 15 1 20 10 6 11 17 15 30 12 15 -4 19 -2 15 8 -7
18 20 28 53 20 19 -5 24 -10 17 -17 -8 -8 -17 -7 -32 0 -12 7 -21 8 -21 2 0
-16 38 -23 60 -11 13 7 20 7 20 0 0 -5 6 -10 13 -10 6 1 1 10 -13 22 l-25 21
25 -6 c14 -4 29 -7 33 -7 5 0 5 -4 2 -10 -3 -5 -1 -10 5 -10 7 0 10 7 6 15 -3
10 1 15 12 15 9 0 -3 10 -28 21 -42 19 -44 21 -27 34 11 8 25 11 32 8 8 -2 22
0 32 6 14 8 15 10 3 11 -13 0 -13 1 0 10 19 12 23 12 15 0z m-1279 -20 c16
-13 17 -13 9 0 -6 12 -5 13 5 3 16 -15 22 -43 9 -43 -16 0 -24 5 -21 13 1 4
-3 6 -9 5 -6 -2 -17 7 -26 19 -13 19 -13 21 0 19 8 -1 23 -8 33 -16z m109 -48
c-2 -9 -4 -19 -4 -21 -1 -2 -8 2 -16 9 -12 10 -13 16 -4 26 14 17 28 9 24 -14z
m-274 -18 c12 -13 26 -21 32 -17 6 3 7 1 3 -6 -4 -6 -2 -18 4 -26 6 -8 9 -18
6 -23 -3 -5 1 -9 9 -9 8 0 15 5 15 11 0 6 4 5 9 -3 13 -20 2 -44 -14 -31 -6 5
-15 7 -18 3 -8 -7 -37 15 -37 29 0 5 4 7 9 3 5 -3 13 0 17 6 5 8 3 9 -6 4 -9
-6 -11 -4 -5 5 5 9 4 11 -3 6 -8 -5 -10 -1 -6 11 4 11 3 14 -3 7 -4 -6 -15
-10 -25 -9 -12 2 -15 -3 -12 -21 2 -13 2 -24 0 -24 -16 0 -36 14 -36 25 0 11
-22 27 -42 29 -11 2 -22 16 -24 31 -1 8 2 13 6 10 5 -3 11 -1 14 3 3 5 23 9
45 9 29 0 46 -6 62 -23z m1386 7 c13 -7 6 -9 -27 -7 -24 1 -45 7 -47 13 -5 14
48 9 74 -6z m-1196 -28 c13 -16 12 -17 -3 -4 -10 7 -18 15 -18 17 0 8 8 3 21
-13z m45 -9 c2 -12 -1 -13 -12 -3 -7 6 -11 16 -8 21 7 11 17 3 20 -18z m1323
17 c8 -5 16 -19 18 -32 3 -17 0 -19 -10 -11 -9 8 -17 8 -27 0 -12 -8 -11 -8 5
-3 17 5 18 4 7 -7 -11 -11 -16 -10 -26 4 -7 10 -15 17 -17 15 -2 -1 2 4 10 11
8 6 24 10 35 7 17 -5 16 -3 -4 9 -14 9 -20 15 -15 15 6 1 16 -3 24 -8z m-1555
-55 c-3 -8 0 -17 6 -21 8 -5 8 -11 -1 -21 -9 -11 -15 -12 -25 -3 -10 8 -11 15
-4 24 6 7 10 17 9 21 -3 18 1 25 11 19 5 -3 7 -12 4 -19z m569 -83 c-6 -16 -5
-16 10 -4 21 17 34 7 18 -13 -10 -12 -17 -13 -31 -3 -14 8 -16 15 -8 24 15 18
19 16 11 -4z m-514 -6 c8 -10 7 -14 -2 -14 -8 0 -14 6 -14 14 0 7 1 13 2 13 2
0 8 -6 14 -13z m1134 6 c-7 -2 -19 -2 -25 0 -7 3 -2 5 12 5 14 0 19 -2 13 -5z
m-533 -28 c-7 -8 -17 -15 -23 -15 -5 0 -2 9 8 20 21 23 35 19 15 -5z m-466
-66 c-4 -7 -1 -10 7 -7 8 3 27 -1 42 -9 22 -11 32 -12 43 -2 8 6 17 9 20 6 3
-3 -4 -10 -15 -17 -16 -8 -27 -8 -42 1 -15 8 -24 8 -32 0 -14 -14 -30 -14 -22
-1 3 6 -1 13 -10 16 -13 6 -14 8 -3 15 18 12 20 11 12 -2z"/>
<path d="M2040 3740 c0 -5 8 -10 19 -10 16 0 17 -6 13 -50 -4 -41 -2 -50 12
-50 13 0 16 11 16 51 0 41 3 50 15 45 9 -3 15 0 15 9 0 11 -12 15 -45 15 -25
0 -45 -4 -45 -10z"/>
<path d="M1867 3703 c10 -64 17 -83 28 -75 16 10 -3 112 -20 112 -10 0 -12
-10 -8 -37z"/>
<path d="M2287 3667 c-35 -48 -36 -75 -2 -47 17 14 55 4 55 -16 0 -8 5 -14 11
-14 8 0 9 18 4 58 -11 90 -15 91 -68 19z m43 -7 c0 -13 -5 -18 -15 -14 -12 5
-13 10 -4 20 15 19 19 18 19 -6z"/>
<path d="M1680 3697 c-14 -6 -26 -12 -28 -12 -1 -1 3 -25 10 -54 7 -32 17 -51
26 -51 10 0 12 7 8 24 -4 18 -1 25 15 29 12 3 18 10 14 17 -4 6 -15 8 -25 5
-10 -3 -21 -1 -25 5 -4 7 2 14 14 17 12 3 21 12 21 19 0 8 -1 14 -2 13 -2 0
-14 -5 -28 -12z"/>
<path d="M2523 3589 c-49 -46 -53 -54 -19 -45 33 8 56 -2 56 -25 0 -10 4 -19
9 -19 11 0 25 106 16 120 -10 16 -17 12 -62 -31z m47 -9 c0 -11 -7 -20 -15
-20 -18 0 -19 12 -3 28 16 16 18 15 18 -8z"/>
<path d="M2856 3351 l-37 -38 27 -22 c32 -25 42 -26 72 -5 27 19 29 64 4 87
-10 10 -21 17 -23 17 -3 0 -22 -17 -43 -39z m58 -29 c-13 -20 -54 -29 -54 -12
0 7 10 20 23 30 26 22 48 10 31 -18z"/>
<path d="M3025 3179 c-16 -11 -36 -23 -43 -28 -11 -6 -11 -13 -1 -34 7 -15 18
-27 26 -27 15 0 17 16 3 25 -15 9 -12 25 5 25 8 0 15 -7 15 -15 0 -16 12 -20
23 -8 4 3 2 12 -5 20 -8 10 -8 17 0 25 8 8 13 7 18 -5 6 -17 34 -24 34 -9 -1
8 -36 52 -42 51 -1 0 -16 -9 -33 -20z"/>
<path d="M1680 2593 c0 -262 2 -474 4 -472 2 2 25 33 51 67 57 79 180 208 271
285 l69 59 -3 86 -3 87 -70 -3 -69 -4 0 91 0 91 85 0 85 0 0 95 0 95 -210 0
-210 0 0 -477z m380 377 l0 -60 -64 0 c-89 0 -96 -9 -96 -120 0 -109 8 -120
86 -120 l54 0 0 -60 0 -60 -58 0 c-32 0 -63 -5 -70 -12 -7 -7 -12 -37 -12 -67
0 -52 -2 -56 -58 -115 -31 -34 -72 -78 -90 -100 -18 -21 -35 -36 -38 -34 -2 3
-1 185 3 406 l6 402 169 0 168 0 0 -60z m-70 -490 c-30 -27 -57 -50 -60 -50
-3 0 -4 20 -2 44 l4 45 46 4 c26 2 52 4 57 5 6 1 -15 -21 -45 -48z"/>
<path d="M2360 3010 l0 -60 118 0 117 0 0 60 0 60 -117 0 -118 0 0 -60z m200
-5 c0 -25 -1 -25 -85 -25 -84 0 -85 0 -85 25 0 25 1 25 85 25 84 0 85 0 85
-25z"/>
<path d="M3132 2978 c-7 -7 -12 -25 -12 -40 0 -15 -5 -28 -11 -28 -6 0 -9 12
-7 27 3 29 -16 43 -25 18 -8 -20 9 -64 28 -71 24 -10 45 15 45 53 0 21 4 32
10 28 6 -4 10 -14 9 -23 -3 -31 1 -43 11 -37 25 15 4 85 -25 85 -6 0 -16 -5
-23 -12z"/>
<path d="M2360 2812 l0 -88 -34 -17 c-102 -48 -271 -167 -238 -167 6 0 13 4
17 10 21 34 338 215 450 257 33 12 54 22 46 22 -10 1 -12 10 -8 36 l6 35 -120
0 -119 0 0 -88z m200 33 c0 -8 -8 -15 -18 -15 -10 0 -22 -3 -25 -6 -6 -6 -117
-54 -124 -54 -2 0 -3 20 -3 45 l0 45 85 0 c69 0 85 -3 85 -15z"/>
<path d="M2760 2880 c0 -5 5 -10 10 -10 6 0 10 5 10 10 0 6 -4 10 -10 10 -5 0
-10 -4 -10 -10z"/>
<path d="M2710 2845 c-19 -7 -84 -32 -145 -55 -219 -85 -423 -211 -580 -359
-122 -116 -255 -279 -255 -313 0 -5 61 -7 136 -6 l137 3 38 62 c71 118 153
218 283 349 134 133 245 219 377 293 73 40 77 53 9 26z m-180 -110 c-7 -8 -16
-12 -21 -9 -5 3 -12 -2 -15 -10 -3 -9 -13 -16 -22 -16 -8 0 -12 -3 -9 -6 6 -6
-34 -44 -46 -44 -3 0 -42 -35 -86 -79 -44 -43 -83 -76 -86 -73 -3 3 -5 -2 -5
-11 0 -8 -11 -24 -25 -35 -14 -11 -25 -23 -25 -27 0 -4 -10 -18 -22 -31 -44
-44 -69 -74 -62 -74 3 0 -8 -16 -25 -35 -17 -20 -31 -42 -31 -49 0 -7 -11 -25
-25 -40 -13 -14 -21 -26 -17 -26 4 0 -2 -7 -12 -15 -28 -21 -216 -22 -216 -1
0 8 7 21 15 30 8 8 15 19 15 24 0 6 7 12 15 16 8 3 14 9 13 14 -2 5 13 24 32
44 19 19 55 57 80 84 44 48 153 145 194 173 12 8 23 18 26 21 3 3 24 15 47 27
23 11 40 22 38 25 -8 7 126 78 148 78 11 0 17 3 13 7 -9 10 73 46 90 39 8 -3
14 -1 14 4 0 6 5 10 11 10 8 0 8 -5 -1 -15z"/>
<path d="M2630 2840 c-8 -5 -10 -10 -5 -10 6 0 17 5 25 10 8 5 11 10 5 10 -5
0 -17 -5 -25 -10z"/>
<path d="M3178 2748 c-31 -7 -48 -15 -48 -25 0 -9 7 -12 18 -9 9 2 36 8 60 11
26 4 42 12 42 21 0 16 -5 16 -72 2z"/>
<path d="M2545 2699 c-22 -16 -72 -59 -112 -95 l-73 -65 0 -210 0 -209 118 0
117 0 0 305 c0 168 -2 305 -5 305 -3 0 -23 -14 -45 -31z m15 -289 l0 -260 -85
0 -85 0 0 189 c0 144 3 193 13 203 19 18 150 127 155 128 1 0 2 -117 2 -260z"/>
<path d="M3167 2552 c-30 -33 -18 -68 31 -96 9 -5 12 3 12 29 0 22 -4 34 -10
30 -6 -4 -8 -11 -5 -16 4 -5 2 -9 -4 -9 -27 0 -22 44 6 54 27 11 45 -14 39
-53 l-6 -36 20 24 c24 28 25 40 4 69 -19 27 -64 29 -87 4z"/>
<path d="M3130 2306 c0 -10 9 -16 23 -16 40 0 40 -14 1 -25 -54 -15 -52 -30 7
-43 65 -15 69 -15 69 3 0 10 -10 15 -30 15 -40 0 -38 18 2 22 44 4 50 33 10
41 -16 3 -41 9 -56 13 -20 5 -26 2 -26 -10z"/>
<path d="M2905 1890 c3 -5 15 -15 26 -21 19 -10 20 -9 9 10 -6 12 -18 21 -26
21 -8 0 -12 -4 -9 -10z"/>
<path d="M990 3171 c0 -6 4 -13 10 -16 6 -3 7 1 4 9 -7 18 -14 21 -14 7z"/>
<path d="M872 2865 c0 -16 2 -22 5 -12 2 9 2 23 0 30 -3 6 -5 -1 -5 -18z"/>
<path d="M840 2655 c0 -49 3 -86 6 -82 3 3 6 40 6 82 0 42 -3 79 -6 82 -3 4
-6 -33 -6 -82z"/>
<path d="M873 2655 c0 -44 2 -61 4 -37 2 23 2 59 0 80 -2 20 -4 1 -4 -43z"/>
<path d="M977 2330 c-4 -16 -3 -39 1 -51 6 -15 8 -6 9 30 1 58 -2 64 -10 21z"/>
<path d="M985 2060 c2 -18 6 -35 9 -38 3 -3 4 9 2 27 -2 17 -6 34 -9 38 -4 3
-5 -9 -2 -27z"/>
<path d="M1070 1921 c4 -9 9 -20 10 -26 3 -20 6 -14 5 14 0 15 -5 28 -12 28
-8 0 -9 -6 -3 -16z"/>
<path d="M1072 2155 c-8 -16 -9 -32 -3 -42 7 -14 10 -13 16 7 l7 23 14 -24 c7
-13 13 -19 13 -14 0 6 -8 25 -18 43 l-17 33 -12 -26z m9 -22 c-12 -20 -14 -14
-5 12 4 9 9 14 11 11 3 -2 0 -13 -6 -23z"/>
<path d="M1156 2125 c-9 -26 -7 -32 5 -12 6 10 9 21 6 23 -2 3 -7 -2 -11 -11z"/>
<path d="M1285 2080 c-4 -6 -10 -8 -15 -5 -4 3 -13 -2 -20 -10 -14 -16 -21
-67 -9 -59 13 8 11 -10 -2 -23 -16 -16 14 -11 33 5 10 8 18 8 25 1 6 -6 10 -5
10 5 0 8 -4 13 -7 11 -4 -3 -7 6 -7 20 0 14 3 23 7 20 3 -2 7 2 7 10 0 11 -4
12 -14 4 -16 -14 -17 3 -1 19 7 7 9 12 6 12 -4 0 -10 -5 -13 -10z m-13 -48
c-4 -11 -1 -13 7 -7 10 6 11 3 2 -13 -6 -12 -17 -24 -24 -28 -9 -5 -9 -4 1 7
14 16 16 33 2 24 -6 -4 -7 1 -3 11 5 12 3 15 -6 9 -10 -6 -11 -3 -1 15 9 17
14 19 20 10 5 -7 6 -20 2 -28z"/>
<path d="M1698 1798 c17 -17 15 -33 -2 -19 -11 9 -16 9 -22 -1 -4 -7 -3 -10 1
-5 5 4 17 -1 27 -10 35 -32 49 -23 22 13 -15 19 -29 34 -32 34 -3 0 -1 -5 6
-12z"/>
<path d="M1340 2012 c6 -12 16 -20 21 -16 6 3 9 -1 7 -9 -2 -9 1 -15 7 -14 5
1 10 10 10 19 1 9 -3 14 -8 11 -7 -4 -8 1 -4 13 6 17 6 17 -6 2 -12 -15 -14
-15 -25 0 -10 14 -11 13 -2 -6z"/>
<path d="M1421 1964 c6 -7 16 -11 21 -8 11 7 3 17 -18 20 -12 2 -13 -1 -3 -12z"/>
<path d="M3110 1930 c-9 -6 -10 -10 -3 -10 6 0 15 5 18 10 8 12 4 12 -15 0z"/>
<path d="M1620 1730 c0 -5 9 -8 20 -7 21 1 18 10 -5 13 -8 1 -15 -2 -15 -6z"/>
<path d="M1487 1709 c7 -9 10 -19 6 -22 -3 -4 -1 -7 5 -7 17 0 15 16 -5 31
-16 12 -17 12 -6 -2z"/>
<path d="M1585 1690 c10 -11 20 -20 23 -20 3 0 -3 9 -13 20 -10 11 -20 20 -23
20 -3 0 3 -9 13 -20z"/>
<path d="M1560 1685 c26 -35 37 -44 44 -38 3 4 6 2 6 -4 0 -6 -13 -10 -29 -9
-18 1 -27 5 -24 14 3 6 1 12 -5 12 -18 0 -6 -33 14 -40 17 -7 64 3 64 13 0 2
-19 19 -42 37 -24 19 -36 25 -28 15z"/>
<path d="M1521 1654 c0 -11 3 -14 6 -6 3 7 2 16 -1 19 -3 4 -6 -2 -5 -13z"/>
<path d="M2862 1654 c-12 -8 -26 -12 -32 -9 -5 3 -21 -2 -36 -11 -21 -14 -30
-15 -45 -6 -10 7 -19 8 -19 4 0 -5 -17 -13 -37 -18 -37 -10 -37 -10 -11 -15
15 -4 25 -2 22 2 -3 5 2 9 10 9 16 0 33 -19 19 -21 -16 -3 -108 -11 -128 -12
-11 0 -36 2 -55 6 -25 5 -29 4 -15 -2 15 -7 16 -10 4 -10 -21 -1 -80 19 -98
33 -8 6 -22 10 -33 8 -24 -4 -23 14 1 21 12 3 27 -3 37 -14 9 -10 22 -19 28
-19 6 0 0 7 -12 16 -23 16 -31 40 -9 28 8 -5 9 -4 2 4 -8 9 -19 9 -43 0 -28
-11 -32 -17 -27 -36 5 -20 3 -23 -13 -18 -11 4 -24 0 -32 -9 -7 -8 -17 -15
-23 -15 -6 0 -1 9 11 20 12 11 26 20 32 20 6 0 8 5 5 10 -4 7 -11 8 -18 1 -10
-7 -81 -31 -107 -35 -3 -1 -9 -4 -15 -7 -5 -4 -18 -5 -28 -4 -9 2 -14 -1 -11
-6 3 -5 -7 -9 -23 -8 -15 1 -44 -1 -63 -5 -34 -8 -34 -7 -15 9 20 16 20 16 -2
5 -13 -6 -23 -14 -23 -19 0 -12 -188 -11 -240 1 -25 6 -76 26 -115 44 -68 33
-70 33 -87 14 -10 -11 -24 -18 -31 -16 -6 1 -9 1 -4 -1 4 -3 4 -10 0 -16 -5
-9 -3 -9 8 -1 21 17 79 15 86 -2 3 -7 9 -11 15 -8 5 3 17 -1 27 -10 10 -9 22
-16 27 -15 5 1 14 0 19 -1 6 -2 19 -3 29 -4 11 -1 21 -5 22 -11 3 -11 -53 -50
-88 -60 -18 -5 -16 -2 8 13 31 20 51 42 39 42 -4 0 -20 -11 -37 -25 -16 -14
-35 -25 -41 -25 -7 0 1 11 17 25 44 37 27 37 -21 -1 -30 -23 -38 -34 -28 -38
8 -3 23 -2 32 1 12 5 15 2 10 -10 -3 -8 -1 -18 6 -21 15 -8 -21 -1 -48 9 -16
5 -17 5 -5 -4 23 -16 140 -54 147 -47 4 3 -2 6 -13 7 -18 0 -18 1 1 10 15 7
12 8 -15 4 -27 -4 -30 -3 -15 4 20 10 20 10 0 11 -11 1 -15 3 -10 6 6 2 33 -3
60 -10 36 -10 43 -15 25 -16 -33 -3 63 -28 105 -28 28 1 28 1 -5 7 -19 3 55 6
165 7 168 0 217 4 304 22 57 13 106 21 108 18 3 -2 -31 -12 -74 -21 -96 -20
-104 -23 -74 -24 14 -1 61 9 105 21 63 17 76 23 61 30 -14 6 -9 7 15 3 25 -4
31 -2 20 5 -8 5 -24 10 -35 10 -11 1 7 10 40 20 69 23 94 25 50 5 -16 -8 -25
-14 -18 -15 6 0 20 -3 30 -6 14 -4 15 -4 4 4 -11 8 -9 11 9 17 14 4 18 10 11
14 -6 4 8 16 35 30 56 27 72 21 17 -7 -34 -18 -35 -20 -11 -19 14 1 24 6 20
11 -3 5 2 6 12 3 10 -4 15 -3 11 3 -6 11 43 46 52 37 9 -10 44 13 38 24 -4 5
-1 10 4 10 6 1 16 2 21 3 12 1 14 21 3 21 -5 0 -14 4 -21 8 -7 5 -12 5 -11 0
4 -22 -2 -34 -13 -27 -9 5 -9 2 1 -9 7 -9 9 -17 3 -17 -14 0 -33 26 -25 34 4
4 0 4 -10 0 -17 -6 -17 -7 0 -21 17 -14 17 -14 0 -9 -11 3 -16 2 -12 -4 8 -13
-5 -13 -25 0 -13 9 -13 10 0 10 12 0 12 2 2 9 -10 6 -5 11 17 21 17 7 31 17
31 22 0 5 5 6 10 3 6 -3 10 -1 10 5 0 6 5 8 10 5 6 -4 22 0 35 9 21 14 24 14
37 -1 11 -15 11 -16 -4 -10 -23 8 -32 -7 -14 -23 12 -9 17 -7 25 8 8 15 6 23
-7 36 -16 14 -20 14 -40 0z m-112 -44 c0 -5 -2 -10 -4 -10 -3 0 -8 5 -11 10
-3 6 -1 10 4 10 6 0 11 -4 11 -10z m-304 -21 c4 -8 -1 -9 -17 -5 l-24 7 25
-16 c15 -10 17 -14 7 -11 -10 3 -34 6 -53 6 -19 0 -34 5 -34 10 0 6 10 8 24 4
13 -3 27 -1 30 5 9 14 33 14 42 0z m-140 -8 c-3 -5 1 -14 9 -21 10 -9 15 -9
15 -1 0 15 13 14 36 -5 18 -14 18 -15 -6 -9 -19 5 -22 4 -10 -4 17 -12 8 -14
-59 -15 -33 -1 -59 -26 -26 -26 9 0 13 4 10 10 -4 6 5 7 23 4 30 -6 92 18 92
36 0 6 7 10 16 10 8 0 13 -4 9 -10 -3 -5 7 -5 25 1 16 6 28 15 25 19 -3 5 9 5
27 -1 18 -5 49 -7 68 -4 26 4 22 1 -15 -10 -27 -8 -59 -13 -69 -11 -25 6 -7
-10 22 -19 14 -4 22 -2 22 5 0 6 8 10 18 9 9 -1 24 0 32 4 22 8 113 37 117 37
2 0 -2 -6 -9 -14 -7 -8 -15 -12 -17 -10 -2 2 -10 -1 -18 -7 -7 -6 -13 -8 -13
-4 0 4 -6 3 -12 -2 -7 -6 -50 -20 -96 -32 -67 -18 -92 -20 -128 -13 -25 6 -57
6 -76 1 l-33 -9 35 3 c19 2 49 0 65 -4 27 -8 26 -8 -8 -4 -20 2 -35 0 -32 -5
3 -5 -12 -7 -32 -5 l-38 5 38 -10 c43 -11 176 14 299 55 37 13 68 21 68 19 0
-2 9 5 20 16 11 11 26 20 33 19 8 0 8 -2 -2 -6 -10 -4 -11 -7 -1 -13 24 -15
-186 -102 -239 -99 -9 0 17 10 57 21 40 11 71 22 69 24 -2 3 -44 -6 -93 -19
l-89 -24 45 -8 45 -8 -48 -13 c-95 -25 -268 -44 -379 -42 l-113 1 135 7 c167
8 380 41 335 51 -16 4 -39 7 -50 7 -20 1 -20 1 0 -9 14 -6 4 -8 -35 -5 -37 3
-45 2 -25 -3 23 -5 2 -10 -90 -20 -135 -16 -294 -10 -394 14 -35 9 -66 14 -68
11 -6 -5 127 -36 164 -37 16 -1 4 -5 -26 -10 -30 -5 -60 -7 -65 -5 -6 2 3 5
19 6 22 1 10 6 -40 20 -38 10 -79 22 -89 26 -14 5 -17 4 -12 -4 4 -7 1 -12 -8
-12 -9 0 -16 5 -16 10 0 6 4 10 9 10 5 0 32 16 61 35 49 33 90 45 90 27 0 -8
78 -1 136 13 20 4 34 3 38 -4 4 -6 15 -11 24 -10 14 0 13 2 -3 9 -35 15 1 11
46 -6 24 -8 62 -19 84 -24 38 -9 37 -9 -10 -4 -27 3 -59 5 -70 6 -11 0 -42 4
-70 9 -42 8 -62 6 -137 -17 -49 -15 -87 -29 -85 -31 5 -5 138 27 160 39 10 5
26 6 36 3 35 -11 220 -31 215 -23 -3 4 3 8 13 9 16 0 16 1 -2 9 -11 5 -37 11
-57 15 -27 4 -38 11 -38 23 0 15 -2 15 -11 2 -9 -12 -10 -12 -7 -1 6 20 28 26
28 8 0 -16 56 -34 67 -23 4 3 -1 6 -10 6 -9 0 -17 5 -17 11 0 5 -4 8 -9 4 -5
-3 -12 -1 -15 4 -5 8 11 17 44 26 3 1 12 4 20 8 47 18 63 20 56 8z m-176 -51
c0 -5 -7 -7 -15 -4 -8 4 -15 8 -15 10 0 2 7 4 15 4 8 0 15 -4 15 -10z m-383
-116 c-3 -3 -12 -4 -19 -1 -8 3 -5 6 6 6 11 1 17 -2 13 -5z"/>
<path d="M2488 1553 c7 -3 16 -2 19 1 4 3 -2 6 -13 5 -11 0 -14 -3 -6 -6z"/>
<path d="M2230 1538 c0 -4 4 -8 9 -8 6 0 12 4 15 8 3 5 -1 9 -9 9 -8 0 -15 -4
-15 -9z"/>
<path d="M2280 1546 c0 -2 9 -6 20 -9 11 -3 18 -1 14 4 -5 9 -34 13 -34 5z"/>
<path d="M2430 1530 c-7 -4 2 -10 21 -14 40 -8 45 -4 14 10 -13 6 -28 8 -35 4z"/>
<path d="M2635 1520 c-13 -6 -15 -9 -5 -9 8 0 22 4 30 9 18 12 2 12 -25 0z"/>
<path d="M2378 1513 c6 -2 18 -2 25 0 6 3 1 5 -13 5 -14 0 -19 -2 -12 -5z"/>
<path d="M2428 1503 c7 -3 16 -2 19 1 4 3 -2 6 -13 5 -11 0 -14 -3 -6 -6z"/>
<path d="M1805 1474 c-27 -13 -44 -24 -37 -24 15 0 102 38 102 45 0 8 -14 4
-65 -21z"/>
<path d="M1910 1454 c-25 -7 -31 -11 -15 -9 17 3 77 8 135 11 80 4 101 3 90
-6 -10 -8 -11 -10 -2 -8 8 2 14 8 15 13 3 16 -172 15 -223 -1z"/>
<path d="M2156 1451 c-3 -5 5 -8 19 -7 14 0 25 4 25 9 0 10 -38 9 -44 -2z"/>
<path d="M2278 1453 c6 -2 18 -2 25 0 6 3 1 5 -13 5 -14 0 -19 -2 -12 -5z"/>
<path d="M2048 1443 c12 -2 30 -2 40 0 9 3 -1 5 -23 4 -22 0 -30 -2 -17 -4z"/>
<path d="M2216 1439 c3 -5 19 -9 36 -9 39 0 34 6 -10 13 -18 3 -30 1 -26 -4z"/>
<path d="M1933 1433 c9 -2 25 -2 35 0 9 3 1 5 -18 5 -19 0 -27 -2 -17 -5z"/>
<path d="M1999 1427 c4 -4 50 -6 102 -5 l94 3 -102 5 c-56 3 -99 1 -94 -3z"/>
<path d="M1403 1565 c-4 -5 -3 -7 2 -3 4 4 15 3 25 -2 11 -6 17 -5 17 3 0 15
-36 17 -44 2z"/>
<path d="M1880 1570 c-12 -8 -10 -10 8 -10 13 0 20 4 17 10 -7 12 -6 12 -25 0z"/>
<path d="M2670 1470 c-8 -5 -10 -10 -5 -10 6 0 17 5 25 10 8 5 11 10 5 10 -5
0 -17 -5 -25 -10z"/>
<path d="M2590 1445 c14 -8 19 -14 11 -15 -8 0 -12 -2 -9 -5 3 -3 13 -2 23 1
15 6 15 8 -6 20 -13 7 -28 13 -34 13 -5 0 1 -6 15 -14z"/>
<path d="M2490 1394 c-41 -12 -68 -23 -59 -23 20 -1 149 38 149 44 0 7 -5 6
-90 -21z"/>
<path d="M1828 1373 c7 -3 16 -2 19 1 4 3 -2 6 -13 5 -11 0 -14 -3 -6 -6z"/>
<path d="M2130 1373 c-74 -2 -138 -7 -142 -11 -4 -4 72 -4 168 -1 96 4 178 9
181 13 4 3 -11 5 -33 4 -21 -1 -100 -4 -174 -5z"/>
<path d="M2347 1364 c-3 -4 -84 -10 -179 -14 l-173 -8 175 4 c96 2 191 8 210
13 l35 9 -31 1 c-17 1 -34 -2 -37 -5z"/>
<path d="M1933 1353 c9 -2 23 -2 30 0 6 3 -1 5 -18 5 -16 0 -22 -2 -12 -5z"/>
<path d="M1236 1861 c-3 -5 2 -15 12 -22 15 -12 16 -12 5 2 -7 9 -10 19 -6 22
3 4 4 7 0 7 -3 0 -8 -4 -11 -9z"/>
<path d="M1345 1883 c1 -10 -3 -25 -9 -33 -6 -8 -1 -6 12 4 17 15 19 22 11 33
-15 17 -18 17 -14 -4z"/>
<path d="M1376 1862 c-3 -5 1 -9 9 -9 8 0 12 4 9 9 -3 4 -7 8 -9 8 -2 0 -6 -4
-9 -8z"/>
<path d="M2740 1811 c0 -12 68 -46 77 -37 2 2 -6 7 -19 11 -13 4 -31 14 -40
23 -12 10 -18 11 -18 3z"/>
<path d="M2780 1812 c0 -8 61 -34 67 -29 1 2 -13 11 -32 20 -19 9 -35 13 -35
9z"/>
<path d="M2750 1710 c0 -7 -6 -10 -14 -7 -7 3 -19 0 -26 -6 -10 -9 -14 -9 -17
1 -3 6 -9 12 -14 12 -4 0 -6 -7 -3 -15 4 -10 0 -15 -11 -15 -10 0 -13 5 -9 12
5 8 2 9 -9 5 -10 -3 -17 -2 -17 4 0 6 -5 7 -11 3 -8 -4 -3 -12 12 -21 l24 -14
-25 5 c-14 3 -28 6 -32 6 -4 0 -5 7 -2 15 4 8 1 15 -6 15 -6 0 -8 -4 -5 -10 3
-5 0 -10 -7 -11 -14 -1 32 -22 72 -33 20 -6 22 -5 10 4 -12 9 -9 10 15 6 23
-5 27 -4 15 4 -12 9 -7 10 20 6 28 -5 31 -4 15 4 -18 9 -17 10 7 7 16 -3 25 0
21 6 -3 5 4 6 18 2 13 -4 22 -6 19 -3 -33 27 -40 30 -40 18z"/>
<path d="M1251 1766 c-8 -10 -9 -16 -1 -21 5 -3 10 -3 10 1 0 3 7 1 16 -6 8
-8 14 -9 12 -4 -2 5 2 10 7 12 6 1 10 -2 10 -7 0 -5 4 -13 8 -18 5 -4 7 -1 5
7 -2 11 5 14 26 13 28 -2 28 -2 11 17 -17 19 -19 19 -32 2 -8 -9 -12 -12 -9
-5 8 15 -10 27 -19 13 -5 -8 -11 -8 -20 0 -9 7 -16 6 -24 -4z m23 -4 c3 -5 -1
-9 -9 -9 -8 0 -12 4 -9 9 3 4 7 8 9 8 2 0 6 -4 9 -8z"/>
<path d="M1346 1671 c-4 -5 -2 -12 3 -15 5 -4 12 -2 15 3 4 5 2 12 -3 15 -5 4
-12 2 -15 -3z"/>
<path d="M1203 3441 c-11 -22 -24 -37 -28 -33 -5 4 -5 1 -1 -5 4 -7 9 -13 11
-13 6 0 46 82 42 87 -3 2 -13 -14 -24 -36z"/>
<path d="M1149 3324 c-12 -25 -19 -48 -16 -50 2 -2 14 18 25 46 26 63 18 66
-9 4z"/>
<path d="M1096 3245 c-9 -26 -7 -32 5 -12 6 10 9 21 6 23 -2 3 -7 -2 -11 -11z"/>
<path d="M1103 3198 c-34 -100 -54 -248 -34 -248 6 0 10 23 10 53 0 44 19 142
47 235 3 12 4 22 2 22 -2 0 -14 -28 -25 -62z"/>
<path d="M960 3095 c-8 -26 -8 -39 0 -52 9 -15 10 -13 5 10 -4 20 -2 27 6 22
8 -5 9 -1 4 15 -5 15 -4 20 4 16 7 -5 9 -1 5 8 -9 22 -11 20 -24 -19z"/>
<path d="M911 2964 c0 -11 3 -14 6 -6 3 7 2 16 -1 19 -3 4 -6 -2 -5 -13z"/>
<path d="M931 2863 c-1 -14 5 -23 14 -23 9 0 15 9 14 23 0 21 -1 21 -8 2 -8
-20 -8 -20 -13 0 -5 18 -6 18 -7 -2z"/>
<path d="M1070 2585 c0 -8 5 -15 10 -15 6 0 10 7 10 15 0 8 -4 15 -10 15 -5 0
-10 -7 -10 -15z"/>
<path d="M921 2539 c-2 -42 11 -119 20 -119 5 0 6 6 4 13 -3 6 -9 39 -14 72
-5 33 -9 48 -10 34z"/>
<path d="M1060 2545 c10 -13 10 -19 -4 -34 -15 -16 -15 -19 -1 -24 8 -4 15
-14 15 -22 0 -15 -1 -15 -16 -1 -20 21 -24 20 -24 -6 0 -12 3 -19 6 -16 3 4
17 0 32 -8 25 -13 47 -10 26 4 -12 8 -12 40 -1 59 9 14 -1 43 -15 43 -5 0 -6
5 -3 10 3 6 -1 10 -11 10 -14 0 -14 -3 -4 -15z m25 -34 c3 -5 1 -12 -5 -16 -5
-3 -10 1 -10 9 0 18 6 21 15 7z"/>
<path d="M1096 2545 c4 -8 8 -15 10 -15 2 0 4 7 4 15 0 8 -4 15 -10 15 -5 0
-7 -7 -4 -15z"/>
<path d="M882 2390 c0 -14 2 -19 5 -12 2 6 2 18 0 25 -3 6 -5 1 -5 -13z"/>
<path d="M902 2390 c0 -14 2 -19 5 -12 2 6 2 18 0 25 -3 6 -5 1 -5 -13z"/>
<path d="M947 2389 c4 -13 8 -18 11 -10 2 7 -1 18 -6 23 -8 8 -9 4 -5 -13z"/>
<path d="M1076 2395 c-9 -26 -7 -32 5 -12 6 10 9 21 6 23 -2 3 -7 -2 -11 -11z"/>
<path d="M891 2344 c0 -11 3 -14 6 -6 3 7 2 16 -1 19 -3 4 -6 -2 -5 -13z"/>
<path d="M1135 2310 c-4 -6 -11 -8 -16 -5 -12 8 -11 -17 2 -35 9 -13 10 -12 5
3 -3 11 0 17 9 17 9 0 12 -6 9 -17 -3 -10 2 -7 10 7 8 14 15 28 16 33 0 11
-28 9 -35 -3z"/>
<path d="M1224 2197 c-4 -7 -4 -9 1 -5 4 4 14 3 22 -3 8 -7 13 -8 13 -1 0 15
-28 23 -36 9z"/>
</g>
</svg>
